<svg xmlns="http://www.w3.org/2000/svg" width="61.29" height="62.228" viewBox="0 0 61.29 62.228">
  <g id="_3D_modeling_Icon" data-name="3D modeling Icon" transform="translate(-8 -6)">
    <path id="Path_12" data-name="Path 12" d="M20.749,57H56.522v1H20.749ZM68.626,43.986H8.736a.515.515,0,1,1,0-1H68.624a.515.515,0,1,1,0,1Z" transform="translate(0 10.228)" fill="#2c4355"/>
    <path id="Path_13" data-name="Path 13" d="M47.86,58H29.43V49H47.86ZM30.747,57h15.8V50h-15.8ZM66.29,41H11V18h7.9v1H12.316V40H64.974V19H51.809V18H66.29Z" transform="translate(0 10.228)" fill="#2c4355"/>
    <path id="Path_14" data-name="Path 14" d="M69.29,60.228H8V15H18.853v1.292H9.277V58.935H68.013V16.292H52.052V15H69.29Z" transform="translate(0 0)" fill="#2c4355"/>
    <path id="Path_15" data-name="Path 15" d="M35,48H29V45h6Zm-5-1h4V46H30Z" transform="translate(6.645 8.14)" fill="#2c4355"/>
    <path id="Path_16" data-name="Path 16" d="M61.29,32.5a2.232,2.232,0,0,0-1.356-1.9,1.964,1.964,0,0,0-.923-1.992,4.235,4.235,0,0,0-2.819-.652,3.671,3.671,0,0,0-1.977-.9V6H16V34H46.49a3.108,3.108,0,0,0,.589.4A1.964,1.964,0,0,0,48,36.389a4.256,4.256,0,0,0,2.819.652,4.234,4.234,0,0,0,5.37,0,4.266,4.266,0,0,0,2.819-.652,1.962,1.962,0,0,0,.923-1.992A2.234,2.234,0,0,0,61.29,32.5ZM17.415,7H52.8v3H17.415ZM45.8,33H17.415V11H52.8V27.053c-.014,0-.028.007-.044.01-.051.008-.1.023-.147.033a4.257,4.257,0,0,0-.515.134c-.071.023-.137.05-.205.077a3.766,3.766,0,0,0-.409.192c-.059.032-.119.062-.174.1a2.968,2.968,0,0,0-.468.353l-.014.01c-.074-.008-.147,0-.221,0a4.881,4.881,0,0,0-.553-.011A3.977,3.977,0,0,0,48,28.611,1.962,1.962,0,0,0,47.08,30.6,2.065,2.065,0,0,0,45.8,33Zm13.014.717-.527.191.174.4a1.086,1.086,0,0,1-.45,1.374A2.5,2.5,0,0,1,56.065,36l-.566-.123-.27.372a2.351,2.351,0,0,1-3.445,0l-.27-.372L50.947,36A2.5,2.5,0,0,1,49,35.682a1.087,1.087,0,0,1-.45-1.374l.174-.4-.527-.191a1.636,1.636,0,0,1-.984-.837h0a.962.962,0,0,1-.079-.379A1.407,1.407,0,0,1,48.2,31.283l.527-.191-.174-.4A1.086,1.086,0,0,1,49,29.318,2.512,2.512,0,0,1,50.949,29l.566.123.272-.372a2.346,2.346,0,0,1,3.441,0l.272.372L56.065,29a2.5,2.5,0,0,1,1.946.318,1.087,1.087,0,0,1,.45,1.374l-.174.4.527.191a1.228,1.228,0,0,1,0,2.434Z" fill="#f15743"/>
    <path id="Path_17" data-name="Path 17" d="M39,19.848,32.5,16.1,26,19.848v7.291l6.5,3.753L39,27.139Zm-1.561.253L32.5,22.952,27.561,20.1,32.5,17.25ZM27,20.931l5,2.886v5.631l-5-2.887Zm6,8.518V23.818l5-2.886v5.63l-5,2.887ZM18,8H35V9H18Z" transform="translate(4.922)" fill="#2c4355"/>
    <path id="Path_18" data-name="Path 18" d="M19,13H40v1H19Z" transform="translate(5.415)" fill="#f15743"/>
    <path id="Path_19" data-name="Path 19" d="M40,8h1V9H40ZM38,8h1V9H38ZM36,8h1V9H36Z" transform="translate(8.654)" fill="#2c4355"/>
    <path id="Path_20" data-name="Path 20" d="M20.447,19.568l-.75-.75-.707.707,1.457,1.457L23.4,18.025l-.707-.707Zm0,4-.75-.75-.707.707,1.457,1.457L23.4,22.025l-.707-.707Zm0,4-.75-.75-.707.707,1.457,1.457L23.4,26.025l-.707-.707Z" transform="translate(3.351 2.87)" fill="#f15743"/>
    <path id="Path_21" data-name="Path 21" d="M41.75,32.918l-.75-.75-.707.707,1.457,1.457L44.582,31.5l-.707-.707Z" transform="translate(9.819 5.232)" fill="#2c4355"/>
  </g>
</svg>
