<svg xmlns="http://www.w3.org/2000/svg" width="58" height="58" viewBox="0 0 58 58">
  <g id="Front-End_Icon" data-name="Front-End Icon" transform="translate(-3 -3)">
    <path id="Path_6" data-name="Path 6" d="M26.008,61H52V57H31V40H52V31H39V19H52V12L43,3H12V16H35V34H12v4H27V50H12V61H26.008Z" fill="#0c84c1"/>
    <path id="Path_7" data-name="Path 7" d="M52,12H43V3Z" fill="#04779b"/>
    <rect id="Rectangle_19" data-name="Rectangle 19" width="2" height="2" transform="translate(15 6)" fill="#c1272d"/>
    <rect id="Rectangle_20" data-name="Rectangle 20" width="2" height="2" transform="translate(19 6)" fill="#f15a24"/>
    <rect id="Rectangle_21" data-name="Rectangle 21" width="2" height="2" transform="translate(23 6)" fill="#009245"/>
    <rect id="Rectangle_22" data-name="Rectangle 22" width="25" height="2" transform="translate(15 11)" fill="#023b5b"/>
    <rect id="Rectangle_23" data-name="Rectangle 23" width="32" height="18" transform="translate(3 16)" fill="#4ec1e5"/>
    <path id="Path_8" data-name="Path 8" d="M37,18V36H12V34H35V18Z" fill="#056f99"/>
    <rect id="Rectangle_24" data-name="Rectangle 24" width="22" height="12" transform="translate(5 38)" fill="#ec4684"/>
    <rect id="Rectangle_25" data-name="Rectangle 25" width="22" height="12" transform="translate(39 19)" fill="#ec4684"/>
    <rect id="Rectangle_26" data-name="Rectangle 26" width="13" height="1.953" transform="translate(39 31.031)" fill="#056f99"/>
    <rect id="Rectangle_27" data-name="Rectangle 27" width="15" height="1.953" transform="translate(12 50.031)" fill="#056f99"/>
    <rect id="Rectangle_28" data-name="Rectangle 28" width="30" height="17" transform="translate(31 40)" fill="#4ec1e5"/>
    <path id="Path_9" data-name="Path 9" d="M52,57v2H29V42h2V57Z" fill="#056f99"/>
    <rect id="Rectangle_29" data-name="Rectangle 29" width="2" height="2" transform="translate(42 22)" fill="#840344"/>
    <rect id="Rectangle_30" data-name="Rectangle 30" width="12" height="2" transform="translate(46 22)" fill="#840344"/>
    <rect id="Rectangle_31" data-name="Rectangle 31" width="2" height="2" transform="translate(42 26)" fill="#840344"/>
    <rect id="Rectangle_32" data-name="Rectangle 32" width="12" height="2" transform="translate(46 26)" fill="#840344"/>
    <rect id="Rectangle_33" data-name="Rectangle 33" width="5" height="2" transform="translate(8 41)" fill="#840344"/>
    <rect id="Rectangle_34" data-name="Rectangle 34" width="9" height="2" transform="translate(15 41)" fill="#840344"/>
    <rect id="Rectangle_35" data-name="Rectangle 35" width="16" height="2" transform="translate(8 45)" fill="#840344"/>
    <path id="Path_10" data-name="Path 10" d="M45,53l-7-5-7,4v5H61V52l-7-6Z" fill="#009245"/>
    <circle id="Ellipse_5" data-name="Ellipse 5" cx="2" cy="2" r="2" transform="translate(43 44)" fill="#c1272d"/>
    <path id="Path_11" data-name="Path 11" d="M12.293,30.778,7.222,25.707a1,1,0,0,1,0-1.414l5.071-5.071,1.414,1.414L9.343,25l4.364,4.364Zm13.414,0-1.414-1.414L28.657,25l-4.364-4.364,1.414-1.414,5.071,5.071a1,1,0,0,1,0,1.414Z" fill="#023b5b"/>
    <rect id="Rectangle_36" data-name="Rectangle 36" width="13.416" height="2" transform="matrix(0.447, -0.894, 0.894, 0.447, 15.106, 30.553)" fill="#023b5b"/>
  </g>
</svg>
