<svg xmlns="http://www.w3.org/2000/svg" width="63" height="60" viewBox="0 0 63 60">
  <g id="UX_icon" data-name="UX icon" transform="translate(8.483 -1013.06)">
    <ellipse id="Ellipse_6" data-name="Ellipse 6" cx="31.5" cy="30" rx="31.5" ry="30" transform="translate(-8.483 1013.06)" fill="#3a6c87"/>
    <path id="Path_22" data-name="Path 22" d="M39.256,1024.51h0a1.047,1.047,0,0,0-.193.016l-23.83,4.392a.614.614,0,0,0-.533.417.475.475,0,0,0,.357.5l30.216,12a1.006,1.006,0,0,0,.805-.037.427.427,0,0,0,.26-.526l-6.385-16.393a.732.732,0,0,0-.7-.371Zm-.52,1.115,5.744,14.742-2.257-.9,1.09-1.3-1.261-.5-1.09,1.3-1.258-.5.363-.432-1.261-.5-.363.432-1.258-.5,1.09-1.3-1.258-.5-1.09,1.3-1.261-.5.363-.432-1.258-.5-.363.432-1.261-.5,1.09-1.3-1.258-.5-1.09,1.3-1.258-.5.363-.432-1.261-.5-.363.432-1.258-.5,1.09-1.3-1.261-.5-1.09,1.3-1.258-.5.363-.432-1.258-.5-.363.432-1.261-.5,1.09-1.3-1.258-.5-1.09,1.3-1.261-.5.363-.432-1.258-.5-.363.432-1-.4,21.434-3.949Zm-1.97,2.545a1.064,1.064,0,0,0-.162.014l-9.384,1.582a.623.623,0,0,0-.545.415.472.472,0,0,0,.355.5l12.084,4.8a1,1,0,0,0,.814-.039.421.421,0,0,0,.248-.535l-2.7-6.379a.745.745,0,0,0-.707-.361Zm-.494,1.1,2,4.726-8.952-3.557,6.948-1.17Zm-25.806,2.209h0a.814.814,0,0,0-.639.268L.083,1044.627a.369.369,0,0,0,.022.492.838.838,0,0,0,.623.241H45.792a.728.728,0,0,0,.7-.378c.081-.221-.066-.452-.358-.561-11.965-4.412-23.371-8.47-35.321-12.881a.994.994,0,0,0-.349-.061Zm.312,1.178c10.85,4,21.3,7.742,32.089,11.7H41.431v-.5H39.977v.5H38.523v-1H37.07v1H35.616v-.5H34.162v.5H32.709v-1H31.255v1H29.8v-.5H28.348v.5H26.894v-1H25.44v1H23.986v-.5H22.533v.5H21.079v-1H19.625v1H18.172v-.5H16.718v.5H15.264v-1H13.81v1H12.357v-.5H10.9v.5H9.449v-1H8v1H6.542v-.5H5.088v.5H3.635v-1H2.681l8.1-10.7Zm.892,2.268a.78.78,0,0,0-.681.314l-3.745,6.455a.372.372,0,0,0,.073.465.854.854,0,0,0,.6.22l20.585.01a.731.731,0,0,0,.7-.374c.083-.22-.059-.45-.346-.562l-16.837-6.467a1,1,0,0,0-.349-.062Zm.363,1.209h0l13.671,5.25-16.715-.012,3.044-5.242Zm-9.852,7.887v.338H1.925Z" transform="translate(0 4.805)" fill="#fff" fill-rule="evenodd"/>
  </g>
</svg>
